# xmcd CD database file
#
# Track frame offsets:
#	150
#	23722
#	41327
#	62022
#	81447
#	99470
#	132185
#	147622
#	166137
#	183415
#	203395
#
# Disc length: 2792 seconds
#
# Revision: 3
# Processed by: cddbd v1.5.2PL0 Copyright (c) Steve Scherf et al.
# Submitted via: CDex 1.70beta3
#
DISCID=8d0ae60b
DTITLE=Icon - Right Between The Eyes
DYEAR=1989
DGENRE=Melodic Hard Rock
TTITLE0=Right Between The Eyes
TTITLE1=Two For The Road
TTITLE2=Taking My Breath Away
TTITLE3=A Far Cry
TTITLE4=In Your Eyes
TTITLE5=Holy Man's War
TTITLE6=Bad Times
TTITLE7=Double Life
TTITLE8=Forever Young
TTITLE9=Running Under Fire
TTITLE10=Peace and Love
EXTD=YEAR: 1989
EXTT0=
EXTT1=
EXTT2=
EXTT3=
EXTT4=
EXTT5=
EXTT6=
EXTT7=
EXTT8=
EXTT9=
EXTT10=
PLAYORDER=
